<svg width="26" height="27" viewBox="0 0 26 27" fill="none" xmlns="http://www.w3.org/2000/svg">
<circle cx="13" cy="13.5" r="13" fill="#BBF3D2"/>
<path d="M17.1833 9.60332C16.5984 9.60332 16.1416 9.13165 15.8297 8.63687C15.7847 8.56539 15.7352 8.49643 15.6812 8.42998C15.4204 8.10063 15.0671 7.85361 14.621 7.68893C14.175 7.52426 13.6673 7.44192 13.0978 7.44192C12.5008 7.44192 11.9759 7.53455 11.523 7.71981C11.0702 7.90507 10.7202 8.16581 10.4732 8.50203C10.2262 8.83139 10.1027 9.20877 10.1027 9.63419C10.1027 10.2655 10.36 10.7526 10.8746 11.0957C11.3961 11.4319 12.0445 11.6927 12.8199 11.8779L14.2505 12.2587C15.4925 12.5675 16.5183 13.041 17.3279 13.6791C18.1445 14.3172 18.5527 15.247 18.5527 16.4683C18.5527 17.3123 18.3332 18.0671 17.894 18.7326C17.4617 19.3914 16.827 19.906 15.9899 20.2765C15.1597 20.647 14.1716 20.8323 13.0257 20.8323C11.9142 20.8323 10.9501 20.6539 10.1336 20.2971C9.32391 19.9403 8.68578 19.436 8.21919 18.7841C7.9764 18.4398 7.79006 18.0611 7.66018 17.648C7.46317 17.0212 8.00211 16.458 8.65908 16.458C9.25347 16.458 9.71338 16.9427 10.0073 17.4593C10.0705 17.5704 10.1434 17.6757 10.2262 17.7755C10.5281 18.1323 10.9192 18.3999 11.3995 18.5783C11.8867 18.7567 12.4253 18.8424 13.0154 18.8356C13.6467 18.8356 14.2128 18.7361 14.7137 18.5371C15.2146 18.3381 15.6057 18.0568 15.887 17.6931C16.1683 17.3295 16.309 16.9075 16.309 16.4272C16.309 16.0155 16.1924 15.6655 15.9591 15.3773C15.7258 15.0891 15.4067 14.8559 15.0019 14.6775C14.597 14.4991 14.0961 14.3309 13.4992 14.1731L11.7289 13.71C10.4801 13.3669 9.51946 12.8763 8.84703 12.2382C8.18145 11.5932 7.8521 10.7664 7.85896 9.7577C7.85896 8.91373 8.08539 8.16581 8.53826 7.51396C8.99798 6.86211 9.62925 6.36122 10.4321 6.01128C11.2417 5.65448 12.1474 5.47607 13.1492 5.47607C14.1442 5.47607 15.0327 5.65448 15.815 6.01128C16.604 6.36122 17.2182 6.85182 17.6573 7.48309C17.8757 7.78891 18.0423 8.11449 18.1571 8.45983C18.3587 9.06655 17.8226 9.60332 17.1833 9.60332Z" fill="#00C696"/>
<path d="M13.1904 4.5L13.1904 6.3291" stroke="#00C696" stroke-width="2" stroke-linecap="round"/>
<path d="M13.1904 19.918L13.1904 21.7471" stroke="#00C696" stroke-width="2" stroke-linecap="round"/>
</svg>
